# xmcd
#
# Track frame offsets:
#	150
#	19076
#	46980
#	70603
#	94643
#	114689
#	132265
#	159482
#	184663
#	204104
#
# Disc length: 3002 seconds
#
# Revision: 1826808519
# Processed by: cddbd v1.5.2PL0 Copyright (c) Steve Scherf et al.
# Submitted via: EZCDAudioConverter 8.0.2.1
#
DISCID=7a0bb80a
DTITLE=Ngọc Lan - Buồn
DYEAR=1994
DGENRE=World Pop
TTITLE0=Buồn
TTITLE1=Trái tim ngục tù
TTITLE2=Tình trong giây phút
TTITLE3=Hoang vắng
TTITLE4=Dạ khúc cho tình nhân
TTITLE5=Mộng phù du
TTITLE6=LK Người mẹ
TTITLE7=Tình cuối xót xa
TTITLE8=Tìm đâu
TTITLE9=Tiếng mưa buồn
EXTD=
EXTT0=
EXTT1=
EXTT2=
EXTT3=
EXTT4=
EXTT5=
EXTT6=
EXTT7=
EXTT8=
EXTT9=
PLAYORDER=
